<?xml version="1.0" encoding="UTF-8"?>
<!--?xml version="1.0" encoding="UTF-8"?-->
<svg xmlns="http://www.w3.org/2000/svg" id="Layer_1" viewBox="0 0 1080 363.19" width="1080" height="363.19000244140625">
  <defs>
    <style>
        .cls-1{fill:#716f6f;}.cls-2{opacity:.7;}.cls-3{fill:#fff;}.cls-4{opacity:.5;}.cls-5{opacity:.9;}.cls-6{opacity:.6;}.cls-7{opacity:.2;}.cls-8{opacity:.8;}.cls-9{opacity:.4;}.cls-10{opacity:.3;}.cls-11{fill:#706f6f;}.cls-12{opacity:.1;}.cls-13{fill:#aac811;}

@-webkit-keyframes animate-svg-fill-1 {
  0% {
    fill: transparent;
  }

  100% {
    fill: rgb(112, 111, 111);
  }
}

@keyframes animate-svg-fill-1 {
  0% {
    fill: transparent;
  }

  100% {
    fill: rgb(112, 111, 111);
  }
}

.svg-elem-1 {
  -webkit-animation: animate-svg-fill-1 0.7s ease-in 0.8s both;
          animation: animate-svg-fill-1 0.7s ease-in 0.8s both;
}

@-webkit-keyframes animate-svg-fill-2 {
  0% {
    fill: transparent;
  }

  100% {
    fill: rgb(112, 111, 111);
  }
}

@keyframes animate-svg-fill-2 {
  0% {
    fill: transparent;
  }

  100% {
    fill: rgb(112, 111, 111);
  }
}

.svg-elem-2 {
  -webkit-animation: animate-svg-fill-2 0.7s ease-in 0.9s both;
          animation: animate-svg-fill-2 0.7s ease-in 0.9s both;
}

@-webkit-keyframes animate-svg-fill-3 {
  0% {
    fill: transparent;
  }

  100% {
    fill: rgb(112, 111, 111);
  }
}

@keyframes animate-svg-fill-3 {
  0% {
    fill: transparent;
  }

  100% {
    fill: rgb(112, 111, 111);
  }
}

.svg-elem-3 {
  -webkit-animation: animate-svg-fill-3 0.7s ease-in 1s both;
          animation: animate-svg-fill-3 0.7s ease-in 1s both;
}

@-webkit-keyframes animate-svg-fill-4 {
  0% {
    fill: transparent;
  }

  100% {
    fill: rgb(112, 111, 111);
  }
}

@keyframes animate-svg-fill-4 {
  0% {
    fill: transparent;
  }

  100% {
    fill: rgb(112, 111, 111);
  }
}

.svg-elem-4 {
  -webkit-animation: animate-svg-fill-4 0.7s ease-in 1.1s both;
          animation: animate-svg-fill-4 0.7s ease-in 1.1s both;
}

@-webkit-keyframes animate-svg-fill-5 {
  0% {
    fill: transparent;
  }

  100% {
    fill: rgb(112, 111, 111);
  }
}

@keyframes animate-svg-fill-5 {
  0% {
    fill: transparent;
  }

  100% {
    fill: rgb(112, 111, 111);
  }
}

.svg-elem-5 {
  -webkit-animation: animate-svg-fill-5 0.7s ease-in 1.2000000000000002s both;
          animation: animate-svg-fill-5 0.7s ease-in 1.2000000000000002s both;
}

@-webkit-keyframes animate-svg-fill-6 {
  0% {
    fill: transparent;
  }

  100% {
    fill: rgb(112, 111, 111);
  }
}

@keyframes animate-svg-fill-6 {
  0% {
    fill: transparent;
  }

  100% {
    fill: rgb(112, 111, 111);
  }
}

.svg-elem-6 {
  -webkit-animation: animate-svg-fill-6 0.7s ease-in 1.3s both;
          animation: animate-svg-fill-6 0.7s ease-in 1.3s both;
}

@-webkit-keyframes animate-svg-fill-7 {
  0% {
    fill: transparent;
  }

  100% {
    fill: rgb(112, 111, 111);
  }
}

@keyframes animate-svg-fill-7 {
  0% {
    fill: transparent;
  }

  100% {
    fill: rgb(112, 111, 111);
  }
}

.svg-elem-7 {
  -webkit-animation: animate-svg-fill-7 0.7s ease-in 1.4000000000000001s both;
          animation: animate-svg-fill-7 0.7s ease-in 1.4000000000000001s both;
}

@-webkit-keyframes animate-svg-fill-8 {
  0% {
    fill: transparent;
  }

  100% {
    fill: rgb(112, 111, 111);
  }
}

@keyframes animate-svg-fill-8 {
  0% {
    fill: transparent;
  }

  100% {
    fill: rgb(112, 111, 111);
  }
}

.svg-elem-8 {
  -webkit-animation: animate-svg-fill-8 0.7s ease-in 1.5s both;
          animation: animate-svg-fill-8 0.7s ease-in 1.5s both;
}

@-webkit-keyframes animate-svg-fill-9 {
  0% {
    fill: transparent;
  }

  100% {
    fill: rgb(112, 111, 111);
  }
}

@keyframes animate-svg-fill-9 {
  0% {
    fill: transparent;
  }

  100% {
    fill: rgb(112, 111, 111);
  }
}

.svg-elem-9 {
  -webkit-animation: animate-svg-fill-9 0.7s ease-in 1.6s both;
          animation: animate-svg-fill-9 0.7s ease-in 1.6s both;
}

@-webkit-keyframes animate-svg-fill-10 {
  0% {
    fill: transparent;
  }

  100% {
    fill: rgb(112, 111, 111);
  }
}

@keyframes animate-svg-fill-10 {
  0% {
    fill: transparent;
  }

  100% {
    fill: rgb(112, 111, 111);
  }
}

.svg-elem-10 {
  -webkit-animation: animate-svg-fill-10 0.7s ease-in 1.7000000000000002s both;
          animation: animate-svg-fill-10 0.7s ease-in 1.7000000000000002s both;
}

@-webkit-keyframes animate-svg-fill-11 {
  0% {
    fill: transparent;
  }

  100% {
    fill: rgb(112, 111, 111);
  }
}

@keyframes animate-svg-fill-11 {
  0% {
    fill: transparent;
  }

  100% {
    fill: rgb(112, 111, 111);
  }
}

.svg-elem-11 {
  -webkit-animation: animate-svg-fill-11 0.7s ease-in 1.8s both;
          animation: animate-svg-fill-11 0.7s ease-in 1.8s both;
}

@-webkit-keyframes animate-svg-fill-12 {
  0% {
    fill: transparent;
  }

  100% {
    fill: rgb(170, 200, 17);
  }
}

@keyframes animate-svg-fill-12 {
  0% {
    fill: transparent;
  }

  100% {
    fill: rgb(170, 200, 17);
  }
}

.svg-elem-12 {
  -webkit-animation: animate-svg-fill-12 0.7s ease-in 1.9000000000000001s both;
          animation: animate-svg-fill-12 0.7s ease-in 1.9000000000000001s both;
}

@-webkit-keyframes animate-svg-fill-13 {
  0% {
    fill: transparent;
  }

  100% {
    fill: rgb(170, 200, 17);
  }
}

@keyframes animate-svg-fill-13 {
  0% {
    fill: transparent;
  }

  100% {
    fill: rgb(170, 200, 17);
  }
}

.svg-elem-13 {
  -webkit-animation: animate-svg-fill-13 0.7s ease-in 2s both;
          animation: animate-svg-fill-13 0.7s ease-in 2s both;
}

@-webkit-keyframes animate-svg-fill-14 {
  0% {
    fill: transparent;
  }

  100% {
    fill: rgb(170, 200, 17);
  }
}

@keyframes animate-svg-fill-14 {
  0% {
    fill: transparent;
  }

  100% {
    fill: rgb(170, 200, 17);
  }
}

.svg-elem-14 {
  -webkit-animation: animate-svg-fill-14 0.7s ease-in 2.1s both;
          animation: animate-svg-fill-14 0.7s ease-in 2.1s both;
}

@-webkit-keyframes animate-svg-fill-15 {
  0% {
    fill: transparent;
  }

  100% {
    fill: rgb(170, 200, 17);
  }
}

@keyframes animate-svg-fill-15 {
  0% {
    fill: transparent;
  }

  100% {
    fill: rgb(170, 200, 17);
  }
}

.svg-elem-15 {
  -webkit-animation: animate-svg-fill-15 0.7s ease-in 2.2s both;
          animation: animate-svg-fill-15 0.7s ease-in 2.2s both;
}

@-webkit-keyframes animate-svg-fill-16 {
  0% {
    fill: transparent;
  }

  100% {
    fill: rgb(170, 200, 17);
  }
}

@keyframes animate-svg-fill-16 {
  0% {
    fill: transparent;
  }

  100% {
    fill: rgb(170, 200, 17);
  }
}

.svg-elem-16 {
  -webkit-animation: animate-svg-fill-16 0.7s ease-in 2.3s both;
          animation: animate-svg-fill-16 0.7s ease-in 2.3s both;
}

@-webkit-keyframes animate-svg-fill-17 {
  0% {
    fill: transparent;
  }

  100% {
    fill: rgb(170, 200, 17);
  }
}

@keyframes animate-svg-fill-17 {
  0% {
    fill: transparent;
  }

  100% {
    fill: rgb(170, 200, 17);
  }
}

.svg-elem-17 {
  -webkit-animation: animate-svg-fill-17 0.7s ease-in 2.4000000000000004s both;
          animation: animate-svg-fill-17 0.7s ease-in 2.4000000000000004s both;
}

@-webkit-keyframes animate-svg-fill-18 {
  0% {
    fill: transparent;
  }

  100% {
    fill: rgb(170, 200, 17);
  }
}

@keyframes animate-svg-fill-18 {
  0% {
    fill: transparent;
  }

  100% {
    fill: rgb(170, 200, 17);
  }
}

.svg-elem-18 {
  -webkit-animation: animate-svg-fill-18 0.7s ease-in 2.5s both;
          animation: animate-svg-fill-18 0.7s ease-in 2.5s both;
}

@-webkit-keyframes animate-svg-fill-19 {
  0% {
    fill: transparent;
  }

  100% {
    fill: rgb(170, 200, 17);
  }
}

@keyframes animate-svg-fill-19 {
  0% {
    fill: transparent;
  }

  100% {
    fill: rgb(170, 200, 17);
  }
}

.svg-elem-19 {
  -webkit-animation: animate-svg-fill-19 0.7s ease-in 2.6s both;
          animation: animate-svg-fill-19 0.7s ease-in 2.6s both;
}

@-webkit-keyframes animate-svg-fill-20 {
  0% {
    fill: transparent;
  }

  100% {
    fill: rgb(170, 200, 17);
  }
}

@keyframes animate-svg-fill-20 {
  0% {
    fill: transparent;
  }

  100% {
    fill: rgb(170, 200, 17);
  }
}

.svg-elem-20 {
  -webkit-animation: animate-svg-fill-20 0.7s ease-in 2.7s both;
          animation: animate-svg-fill-20 0.7s ease-in 2.7s both;
}

@-webkit-keyframes animate-svg-fill-21 {
  0% {
    fill: transparent;
  }

  100% {
    fill: rgb(170, 200, 17);
  }
}

@keyframes animate-svg-fill-21 {
  0% {
    fill: transparent;
  }

  100% {
    fill: rgb(170, 200, 17);
  }
}

.svg-elem-21 {
  -webkit-animation: animate-svg-fill-21 0.7s ease-in 2.8s both;
          animation: animate-svg-fill-21 0.7s ease-in 2.8s both;
}

@-webkit-keyframes animate-svg-fill-22 {
  0% {
    fill: transparent;
  }

  100% {
    fill: rgb(255, 255, 255);
  }
}

@keyframes animate-svg-fill-22 {
  0% {
    fill: transparent;
  }

  100% {
    fill: rgb(255, 255, 255);
  }
}

.svg-elem-22 {
  -webkit-animation: animate-svg-fill-22 0.7s ease-in 2.9000000000000004s both;
          animation: animate-svg-fill-22 0.7s ease-in 2.9000000000000004s both;
}

@-webkit-keyframes animate-svg-fill-23 {
  0% {
    fill: transparent;
  }

  100% {
    fill: rgb(170, 200, 17);
  }
}

@keyframes animate-svg-fill-23 {
  0% {
    fill: transparent;
  }

  100% {
    fill: rgb(170, 200, 17);
  }
}

.svg-elem-23 {
  -webkit-animation: animate-svg-fill-23 0.7s ease-in 3s both;
          animation: animate-svg-fill-23 0.7s ease-in 3s both;
}

@-webkit-keyframes animate-svg-fill-24 {
  0% {
    fill: transparent;
  }

  100% {
    fill: rgb(113, 111, 111);
  }
}

@keyframes animate-svg-fill-24 {
  0% {
    fill: transparent;
  }

  100% {
    fill: rgb(113, 111, 111);
  }
}

.svg-elem-24 {
  -webkit-animation: animate-svg-fill-24 0.7s ease-in 3.1000000000000005s both;
          animation: animate-svg-fill-24 0.7s ease-in 3.1000000000000005s both;
}

@-webkit-keyframes animate-svg-fill-25 {
  0% {
    fill: transparent;
  }

  100% {
    fill: rgb(113, 111, 111);
  }
}

@keyframes animate-svg-fill-25 {
  0% {
    fill: transparent;
  }

  100% {
    fill: rgb(113, 111, 111);
  }
}

.svg-elem-25 {
  -webkit-animation: animate-svg-fill-25 0.7s ease-in 3.2s both;
          animation: animate-svg-fill-25 0.7s ease-in 3.2s both;
}

@-webkit-keyframes animate-svg-fill-26 {
  0% {
    fill: transparent;
  }

  100% {
    fill: rgb(113, 111, 111);
  }
}

@keyframes animate-svg-fill-26 {
  0% {
    fill: transparent;
  }

  100% {
    fill: rgb(113, 111, 111);
  }
}

.svg-elem-26 {
  -webkit-animation: animate-svg-fill-26 0.7s ease-in 3.3s both;
          animation: animate-svg-fill-26 0.7s ease-in 3.3s both;
}

@-webkit-keyframes animate-svg-fill-27 {
  0% {
    fill: transparent;
  }

  100% {
    fill: rgb(113, 111, 111);
  }
}

@keyframes animate-svg-fill-27 {
  0% {
    fill: transparent;
  }

  100% {
    fill: rgb(113, 111, 111);
  }
}

.svg-elem-27 {
  -webkit-animation: animate-svg-fill-27 0.7s ease-in 3.4000000000000004s both;
          animation: animate-svg-fill-27 0.7s ease-in 3.4000000000000004s both;
}

       
       </style>
  </defs>
  <g>
    <path class="cls-11 svg-elem-1" d="m34.17,248.68c-2.79,1.48-6.73,2.79-10.01,2.79-2.63,0-5.42-3.45-5.74-4.1-1.15-2.79-4.76-5.91-4.76-12.14,0-3.61,5.42-8.53,6.4-13.46,1.48-8.04,3.28-15.26,5.58-31.83,3.12-22.64,4.27-29.7,1.15-41.02-.49-1.97-1.81-3.45-1.81-5.42,0-5.42,12.47-8.86,29.04-8.86,10.17,0,25.27.33,34.79,2.79,12.31,3.28,21.99,9.03,21.99,18.71,0,5.74-6.4,12.14-10.5,16.41-5.09,5.25-15.26,10.67-15.26,12.31,0,1.97,11.32,6.07,16.25,8.7,8.86,4.92,10.17,10.34,10.17,16.25,0,24.61-60.88,37.08-70.23,37.08-1.31,0-4.92.66-7.06,1.81Zm26.09-51.03c-6.73-.49-10.83-.66-11.98-.66-.98,0-2.63,1.15-2.95,3.28-1.97,10.34-3.94,20.35-4.59,26.75-.16,1.64-.82,2.62-.82,4.59,0,.82.82,3.45,1.97,3.45,1.64,0,4.92-.16,5.42-.16,8.86,0,22.32-3.77,28.06-6.89,9.35-5.09,14.77-10.99,14.6-15.26-.16-4.59-3.45-10.01-10.17-11.98-3.77-1.15-11.81-2.46-19.53-3.12Zm-8.04-49.23c-.82,2.46-.98,4.43-.98,6.4,0,3.45.16,4.27,0,10.17-.16,4.76-.82,8.53-1.31,13.46-.16,1.81-.82,2.95-.82,3.45-.16,1.15,1.48,2.63,1.8,2.63,5.42,0,9.19-.16,13.78-2.3,5.58-2.46,18.05-8.53,22.64-19.2,1.15-2.63,1.31-5.09,1.31-5.25,0-8.2-23.47-10.83-28.06-10.83-6.4,0-7.88.16-8.37,1.48Z"></path>
    <path class="cls-11 svg-elem-2" d="m182.35,189.27c-.49.82-1.31,1.31-1.97,2.46-.82,1.31-2.63,3.12-5.74,6.07-9.19,8.53-20.51,13.78-28.22,13.95-1.48,0-3.61-.98-5.09-.82-2.3.16-4.59,3.28-4.76,13.46-.16,8.86,3.45,12.14,11.32,12.14,6.24,0,10.5-4.1,15.92-9.68,4.1-4.27,6.07-6.73,10.34-11.16,1.64-1.64,9.35-4.27,10.99-4.1,1.48.16,2.79,1.48,2.79,2.13,0,.98-1.97,5.09-3.94,7.71-12.96,17.72-37.08,27.4-49.56,27.4-10.01,0-18.05-5.42-18.05-18.71,0-15.1,4.92-23.63,9.19-30.85,7.38-12.47,19.36-24.29,32.49-31.83,5.58-3.28,13.13-5.74,19.86-5.91,7.06-.16,10.5,5.09,10.67,10.67.16,4.27-1.64,8.7-3.61,13.13-.66,1.64-1.81,2.79-2.63,3.94Zm-20.02-12.47c-5.25,2.95-15.1,14.77-15.26,20.18,0,1.31,1.81,3.28,3.28,3.28,11.65-.16,18.05-12.31,17.72-21.99,0-1.64-.49-2.63-2.13-2.63-1.15,0-2.63.66-3.61,1.15Z"></path>
    <path class="cls-11 svg-elem-3" d="m224.02,177.46c-3.94,0-6.24,1.64-6.24,6.4,0,14.93,31.83,18.71,31.83,32.82,0,2.63-3.28,9.35-6.24,12.47-.98,1.15-2.46,2.63-4.1,4.1-2.3,2.13-3.94,3.45-6.89,4.76-12.64,5.74-15.92,7.38-27.08,9.19,0,0-4.76.82-7.71.82-2.13,0-4.59-.49-5.91-.82-1.97-.49-7.38-2.46-7.38-7.22,0-3.12,10.17-10.34,13.46-10.34,3.77,0,5.91,1.64,5.91,4.1s.98,2.63,3.45,2.63c8.86,0,21.5-5.74,21.5-14.93,0-6.56-13.13-10.5-17.23-14.6-.98-.98-3.77-1.97-4.92-3.12-4.1-3.77-8.04-7.55-8.04-15.1,0-10.67,22.48-22.65,33.8-22.65,10.67,0,18.38,4.76,18.38,8.53,0,2.46-11.16,7.06-13.95,6.89-3.94-.16-6.56-3.94-12.64-3.94Z"></path>
    <path class="cls-11 svg-elem-4" d="m297.05,182.55c-2.63,0-5.25.16-5.91.33-.49.16-1.15,1.64-1.15,1.97-.33,2.63-.49,3.94-.98,6.73-1.15,5.74-3.61,14.77-3.45,20.18.16,4.76-1.15,10.34-1.97,15.26v.49c.16,2.3.66,4.76.66,6.89,0,4.43-10.67,11.16-15.92,10.99-4.1-.16-4.92-6.89-4.92-9.68.16-6.73,1.48-13.95,2.46-20.68.98-6.73,2.13-13.78,2.95-20.51.33-3.12,1.48-6.56,1.48-9.52,0-1.64-1.15-2.3-2.3-2.63-2.3,0-5.09,0-7.06-.49-1.81-.33-4.76-3.12-4.76-4.59,0-5.91,9.52-7.06,17.07-7.22.33-1.48.49-2.79.98-4.92.98-4.59,1.8-8.04,2.95-10.5,2.13-4.59,5.25-9.52,9.68-14.11,4.92-1.64,9.19-2.46,10.83-2.63,2.3-.16,5.42,2.3,5.42,4.43,0,5.09-8.86,19.03-9.03,25.6,0,1.81.98,2.3,2.79,2.63,5.09.33,12.8.33,17.89.66,4.59.33,11.49.66,13.95.82.98.49,2.79,1.48,2.79,2.95,0,5.91-13.78,5.91-18.21,6.24-8.2.66-12.63,1.31-16.25,1.31Z"></path>
    <path class="cls-11 svg-elem-5" d="m455.23,157.11c-6.89,9.52-12.64,18.05-19.86,26.91-10.5,12.96-22.15,28.72-33.15,42.34-3.61,4.43-6.24,8.86-7.71,14.44-.16.82-1.15.98-1.81,1.64-.49.49-2.79,0-4.1.66-4.43,1.97-8.53,3.61-11.81,3.77-2.95.16-5.74-8.04-6.56-10.01-10.01-25.76-11.65-53.66-21.82-79.26-1.15-2.95-5.58-13.62-5.74-15.92-.16-2.63,10.83-7.06,14.28-7.22,2.79-.16,8.2,4.76,10.17,9.19,2.3,5.25,3.94,10.01,5.25,15.26,1.64,6.56,4.1,13.46,5.42,19.69,1.97,10.01,4.43,20.35,6.56,30.36,1.15,5.09,2.3,6.73,3.45,6.73,1.81,0,1.31-.49,7.38-7.71,11.32-13.29,20.51-26.09,28.88-36.92,9.85-12.8,14.44-21.99,20.51-30.52,3.28-4.59,8.53-5.09,15.1-5.09,2.79,0,6.24,6.73,6.24,8.7s-4.27,6.56-5.91,7.22c-2.79.98-3.12,3.45-4.76,5.74Z"></path>
    <path class="cls-11 svg-elem-6" d="m507.74,189.27c-.49.82-1.31,1.31-1.97,2.46-.82,1.31-2.63,3.12-5.74,6.07-9.19,8.53-20.51,13.78-28.22,13.95-1.48,0-3.61-.98-5.09-.82-2.3.16-4.59,3.28-4.76,13.46-.16,8.86,3.45,12.14,11.32,12.14,6.24,0,10.5-4.1,15.92-9.68,4.1-4.27,6.07-6.73,10.34-11.16,1.64-1.64,9.35-4.27,10.99-4.1,1.48.16,2.79,1.48,2.79,2.13,0,.98-1.97,5.09-3.94,7.71-12.96,17.72-37.08,27.4-49.56,27.4-10.01,0-18.05-5.42-18.05-18.71,0-15.1,4.92-23.63,9.19-30.85,7.38-12.47,19.36-24.29,32.49-31.83,5.58-3.28,13.13-5.74,19.86-5.91,7.06-.16,10.5,5.09,10.67,10.67.16,4.27-1.64,8.7-3.61,13.13-.66,1.64-1.81,2.79-2.63,3.94Zm-20.02-12.47c-5.25,2.95-15.1,14.77-15.26,20.18,0,1.31,1.81,3.28,3.28,3.28,11.65-.16,18.05-12.31,17.72-21.99,0-1.64-.49-2.63-2.13-2.63-1.15,0-2.63.66-3.61,1.15Z"></path>
    <path class="cls-11 svg-elem-7" d="m591.59,234.56c-.98,2.13-2.63,4.1-4.27,7.22-1.15,2.3-10.17,5.09-13.29,5.09s-4.76-4.1-4.76-6.24c0-1.31,2.79-6.4,3.45-8.04.82-2.13.98-5.09,1.81-7.06,5.09-12.96,9.68-20.02,9.85-34.46,0-2.13,0-5.74-2.95-5.74-4.27,0-17.72,12.8-28.72,27.73-6.56,9.03-12.64,19.36-17.07,27.24-1.31,2.46-9.35,5.25-12.31,5.09-2.3-.16-5.91-4.59-5.91-5.74,0-3.94,4.27-18.38,6.4-26.42,2.95-10.83,4.76-21.99,8.04-32.82.49-1.81,1.15-3.28,1.97-5.58.98-2.95,9.85-8.86,14.44-8.7,4.43.16,5.91,3.28,5.91,6.73,0,2.79-1.31,9.02-3.12,14.44-1.97,6.07-1.97,8.21-.82,8.21,1.64,0,7.06-5.58,9.85-8.53,2.63-2.79,6.24-5.09,11.81-9.02,5.09-2.79,14.11-6.4,20.02-6.56,10.67-.16,11.49,17.72,11.49,24.29,0,10.01-6.24,23.63-9.19,32.33-.82,2.13-1.64,4.59-2.63,6.56Z"></path>
    <path class="cls-11 svg-elem-8" d="m697.26,163.84c-2.63,10.34-4.1,16.9-5.58,25.93-.16,1.48-1.31,2.79-1.48,4.27-.98,7.71-7.06,28.88-7.06,39.05,0,5.42-11.81,10.34-14.28,10.17-1.64-.16-3.61-3.61-3.61-10.34,0-2.95.16-4.92.82-10.67.33-2.79,1.48-8.37,1.48-9.52,0-.98-.66-1.31-1.15-1.31-2.13,0-3.61,3.12-7.88,8.2-10.01,11.98-28.06,26.58-39.05,26.58-5.09,0-11.65-3.61-13.46-8.04-.49-1.15-.66-2.63-.66-4.1.16-19.53,24.78-52.18,45.95-61.53,2.79-1.31,13.95-4.27,17.56-5.09,2.62-.33,4.27-.16,5.58-.16,1.64,0,2.46-.82,3.45-4.43.98-3.77,1.81-8.37,2.79-12.8,1.31-5.58,1.31-11.98,3.28-17.39,1.15-3.12,11.49-5.91,14.77-5.74,2.79.16,5.09,2.3,5.09,4.92,0,4.27-2.46,15.1-3.45,19.86-.82,3.94-2.13,8.37-3.12,12.14Zm-56.61,31.18c-.98,1.48-2.79,3.61-3.61,5.09-5.91,9.52-9.68,16.41-9.52,27.57,0,1.48,1.48,2.95,2.79,2.95s2.95-.33,4.92-1.81c13.29-9.52,22.15-23.79,33.64-40.2.98-1.31,2.3-5.91,2.3-7.38,0-1.31-2.79-3.28-4.43-3.28-14.44.16-18.38,6.4-26.09,17.07Z"></path>
    <path class="cls-11 svg-elem-9" d="m727.79,205.85c-1.97,6.56-4.1,13.13-5.74,18.38-1.31,4.27-2.79,7.88-4.76,11.32-1.48,2.63-10.83,12.64-16.25,12.47-1.48,0-4.76-2.46-4.59-3.77,0-3.77,2.13-6.24,1.97-7.88-.16-.98,0-2.13.66-3.77,4.92-12.64,8.04-25.43,11.16-37.41.98-3.94,1.81-7.06,2.63-11.81.33-2.3,0-6.4,1.48-9.68,1.48-3.12,11.32-6.07,14.44-6.07,3.45,0,4.92,4.59,5.09,6.73.16,1.81-.66,3.94-.98,5.58-1.81,9.02-2.46,17.23-5.09,25.93Zm.33-63.18c-.16-2.46,9.02-8.37,14.28-8.37,2.79,0,8.7,6.56,8.53,9.03-.16,3.12-11.81,8.53-14.93,8.53-3.77,0-7.71-6.24-7.88-9.19Z"></path>
    <path class="cls-11 svg-elem-10" d="m813.77,234.56c-.98,2.13-2.63,4.1-4.27,7.22-1.15,2.3-10.17,5.09-13.29,5.09s-4.76-4.1-4.76-6.24c0-1.31,2.79-6.4,3.45-8.04.82-2.13.98-5.09,1.8-7.06,5.09-12.96,9.68-20.02,9.85-34.46,0-2.13,0-5.74-2.95-5.74-4.27,0-17.72,12.8-28.72,27.73-6.56,9.03-12.64,19.36-17.07,27.24-1.31,2.46-9.35,5.25-12.31,5.09-2.3-.16-5.91-4.59-5.91-5.74,0-3.94,4.27-18.38,6.4-26.42,2.95-10.83,4.76-21.99,8.04-32.82.49-1.81,1.15-3.28,1.97-5.58.98-2.95,9.85-8.86,14.44-8.7,4.43.16,5.91,3.28,5.91,6.73,0,2.79-1.31,9.02-3.12,14.44-1.97,6.07-1.97,8.21-.82,8.21,1.64,0,7.06-5.58,9.85-8.53,2.63-2.79,6.24-5.09,11.81-9.02,5.09-2.79,14.11-6.4,20.02-6.56,10.67-.16,11.49,17.72,11.49,24.29,0,10.01-6.24,23.63-9.19,32.33-.82,2.13-1.64,4.59-2.63,6.56Z"></path>
    <path class="cls-11 svg-elem-11" d="m912.23,196.33c-1.48,13.29-1.64,18.21-3.77,26.58-3.61,14.44-8.7,30.19-18.54,44.63-1.15,1.64-2.63,2.63-3.77,3.94-.82.98-1.64,2.63-2.63,3.94-7.55,8.86-25.76,14.6-38.07,14.44-8.7-.16-14.6-3.28-18.54-8.2-3.45-4.27-4.59-6.24-4.43-7.55.16-2.3,8.7-6.4,11.98-6.4,1.64,0,3.45,3.45,7.71,7.71,2.13,2.13,7.38,4.1,11.49,4.1,8.2,0,14.6-5.58,20.02-14.6,3.28-5.58,6.07-12.47,9.02-20.35,3.77-10.34,7.38-22.15,7.38-33.97,0-.98-.33-1.48-1.31-1.48-2.3,0-4.76,4.43-7.71,7.38-10.99,11.16-29.04,26.42-38.73,26.42-5.58,0-11.49-3.94-13.46-8.04-.49-.98-.33-2.62-.33-4.1,0-19.86,28.39-51.53,49.72-60.55,2.79-1.15,11.16-5.25,13.46-5.74,2.46-.49,6.73-.49,9.19-.49,8.37,0,15.92,5.74,15.92,13.46,0,2.63-1.48,3.77-2.46,6.24-1.48,3.94-1.64,8.53-2.13,12.64Zm-47.26-3.77c-1.81,2.3-3.77,4.76-5.42,7.06-5.74,8.2-10.17,16.57-10.17,26.42,0,1.64.98,1.97,2.63,1.97s3.77-.98,7.22-3.77c12.96-10.5,20.68-22.48,32.33-38.73.98-1.48,2.95-5.74,2.95-7.06,0-1.48-2.3-3.45-4.1-3.45-7.22.16-17.23,7.22-25.43,17.56Z"></path>
  </g>
  <g>
    <g class="cls-7">
      <circle class="cls-13 svg-elem-12" cx="959.31" cy="236.6" r="7.17" transform="translate(-17.72 383.78) rotate(-22.42)"></circle>
    </g>
    <g class="cls-10">
      <path class="cls-13 svg-elem-13" d="m989.62,234.43c-3.4-4.74-2.31-11.33,2.42-14.73,4.74-3.4,11.33-2.31,14.72,2.42,3.4,4.74,2.31,11.33-2.42,14.72-4.74,3.4-11.33,2.31-14.73-2.42Z"></path>
    </g>
    <g class="cls-9">
      <path class="cls-13 svg-elem-14" d="m1020.81,204.58c-3.95-5.51-2.69-13.18,2.82-17.13,5.51-3.95,13.18-2.69,17.13,2.82,3.95,5.51,2.69,13.18-2.82,17.13-5.51,3.95-13.18,2.69-17.13-2.82Z"></path>
    </g>
    <g class="cls-4">
      <path class="cls-13 svg-elem-15" d="m1033.56,158.33c-4.14-5.77-2.81-13.79,2.95-17.93,5.77-4.14,13.79-2.82,17.93,2.95,4.14,5.77,2.81,13.79-2.95,17.93-5.77,4.14-13.79,2.81-17.93-2.95Z">
</path>
    </g>
    <g class="cls-6">
      <path class="cls-13 svg-elem-16" d="m1018.4,112.76c-4.56-6.35-3.1-15.2,3.25-19.76,6.35-4.56,15.2-3.1,19.76,3.25,4.56,6.35,3.1,15.2-3.25,19.76-6.35,4.56-15.2,3.1-19.76-3.25Z"></path>
    </g>
    <g class="cls-2">
      <path class="cls-13 svg-elem-17" d="m980.96,81.83c-4.78-6.66-3.25-15.93,3.41-20.7s15.92-3.25,20.7,3.41c4.78,6.66,3.25,15.92-3.41,20.7s-15.93,3.25-20.7-3.41Z"></path>
    </g>
    <g class="cls-8">
      <circle class="cls-13 svg-elem-18" cx="945.04" cy="66.73" r="16.93" transform="translate(138.24 563.35) rotate(-35.65)"></circle>
    </g>
    <g class="cls-5">
      <path class="cls-13 svg-elem-19" d="m886.32,97.91c-5.88-8.2-4-19.62,4.2-25.5,8.2-5.88,19.61-4,25.5,4.2,5.88,8.2,4,19.62-4.2,25.5-8.2,5.88-19.62,4-25.5-4.2Z"></path>
    </g>
    <path class="cls-13 svg-elem-20" d="m858.54,140.33c-6.68-9.31-4.54-22.26,4.76-28.94,9.31-6.68,22.27-4.54,28.94,4.76,6.68,9.31,4.54,22.26-4.76,28.94-9.31,6.68-22.26,4.54-28.94-4.76Z"></path>
    <g class="cls-12">
      <circle class="cls-13 svg-elem-21" cx="923.03" cy="230.23" r="4.78" transform="translate(-18.04 369.46) rotate(-22.42)"></circle>
    </g>
  </g>
  <g>
    <path class="cls-3 svg-elem-22" d="m1021.74,172.49c-5.32,1.83-8.08,7.67-6.14,12.94l5.17,14.06-7.3-19.83c-1.97-5.35-7.84-8.4-13.23-6.53-5.49,1.9-8.32,7.93-6.33,13.36l6.01,16.33-8.21-22.31c-1.99-5.41-7.92-8.49-13.37-6.6-5.54,1.93-8.41,8.01-6.39,13.5l7.68,20.88-20.23-54.99c-5.04-13.69-11.65-16.43-17.55-13.95-5.39,2.26-8.03,8.88-6.01,14.36l30.04,81.67-2.42-6.57-15.96-11.14c-3.8-2.17-8.61-1.6-11.71,1.49-.02.02-.04.04-.05.05-3.98,4.01-1.21,10.76,1.63,15.93,11.71,21.3,26.45,41.83,52.3,45.31,27.08,3.64,63.23-15.56,62.54-46.13-.14-6.29-1.91-12.54-4.06-18.4l-13.64-37.09c-1.9-5.17-7.58-8.13-12.79-6.33Z"></path>
    <path class="cls-13 svg-elem-23" d="m1018.97,279.5c-9.64,3.55-20.04,4.92-29.64,3.63-27.26-3.66-42.75-25.66-54.31-46.69-1.78-3.24-7.2-13.09-1.18-19.15,4-3.98,10.15-4.77,15.03-1.99.07.04.14.08.21.13l8.87,6.19-24.64-66.99c-2.53-6.88.91-15.04,7.51-17.81,3.21-1.35,6.47-1.36,9.46-.06,4.71,2.05,8.64,7.29,11.69,15.58l8.87,24.1c1.58-2.38,3.9-4.14,6.63-5.12,5.52-1.92,11.58.22,14.98,4.83,1.57-2.62,4-4.56,6.91-5.6,5.45-1.89,11.43.19,14.81,4.72,1.54-2.5,3.87-4.35,6.69-5.35,6.51-2.24,13.78,1.33,16.22,7.96l13.64,37.09c1.74,4.72,4.06,11.85,4.23,19.28.28,12.39-5,23.79-15.28,32.99-5.91,5.29-13.07,9.46-20.7,12.26Zm-78.78-59.99c-.91.33-1.75.86-2.46,1.57-2.16,2.18-1.48,6.34,2.04,12.75,11.46,20.84,25.48,40.59,50.28,43.92,15.46,2.08,33.94-3.77,45.99-14.56,6.31-5.65,13.78-15.24,13.47-28.82-.11-5.04-1.35-10.61-3.9-17.53l-13.64-37.09c-1.43-3.88-5.62-5.99-9.35-4.7h0c-1.9.64-3.37,1.99-4.22,3.77-.85,1.79-.94,3.8-.26,5.66l5.17,14.05c.52,1.41-.2,2.97-1.61,3.49s-2.97-.2-3.49-1.61l-7.3-19.83c-1.49-4.06-5.88-6.26-9.79-4.9-1.97.65-3.52,2.08-4.4,3.95-.88,1.87-.98,3.96-.26,5.9l6.01,16.33c.52,1.41-.2,2.97-1.61,3.49-1.41.52-2.97-.2-3.49-1.61l-8.21-22.31c-1.51-4.12-5.97-6.35-9.93-4.97-2.02.66-3.57,2.11-4.47,4.01-.9,1.89-.99,4.02-.27,5.99l7.68,20.88c.52,1.41-.2,2.97-1.61,3.49-1.41.52-2.97-.2-3.49-1.61l-20.23-54.99c-3.14-8.53-6.49-11.49-8.76-12.48-1.64-.72-3.35-.69-5.19.09-4.01,1.68-6.07,6.68-4.51,10.92l30.04,81.67c.52,1.41-.2,2.97-1.61,3.49-1.41.52-2.97-.2-3.49-1.61l-2.12-5.77-15.15-10.57c-1.85-1.02-4.01-1.15-5.89-.46Z"></path>
  </g>
  <g>
    <path class="cls-1 svg-elem-24" d="m760.75,266.79h4.11l-3.73,18.63h11.56l-.69,3.47h-15.67l4.42-22.11Z"></path>
    <path class="cls-1 svg-elem-25" d="m780.28,283.25c-.03.25-.06.5-.06.73,0,1.17.6,1.89,1.99,1.89.76,0,1.55-.22,2.21-.66l.69,2.91c-1.2.76-2.68,1.01-4.07,1.01-2.87,0-4.83-1.67-4.83-4.52,0-.41.03-.85.13-1.33l1.61-7.96h-2.75l.63-3.16h2.75l.76-3.85h3.95l-.79,3.85h4.55l-.63,3.16h-4.55l-1.58,7.93Z"></path>
    <path class="cls-1 svg-elem-26" d="m808.71,265.46l-4.67,23.44h-3.76l.35-1.74c-1.42,1.23-3.25,1.96-5.46,1.96-4.17,0-7.42-2.75-7.42-7.42,0-5.75,4.07-9.85,9.48-9.85,2.62,0,4.64.88,5.75,2.62l1.8-9h3.95Zm-6.76,13.96c0-2.62-1.61-4.23-4.45-4.23-3.35,0-5.78,2.59-5.78,6.32,0,2.62,1.61,4.23,4.45,4.23,3.35,0,5.78-2.59,5.78-6.32Z"></path>
    <path class="cls-1 svg-elem-27" d="m808.4,286.66c0-1.64,1.23-2.78,2.75-2.78,1.39,0,2.43,1.01,2.43,2.46,0,1.67-1.29,2.78-2.72,2.78s-2.46-1.04-2.46-2.46Z"></path>
  </g>
</svg>
